<svg width="512" height="512" viewBox="0 0 512 512" fill="none" xmlns="http://www.w3.org/2000/svg">
<rect width="512" height="512" fill="#4C56C0"/>
<path d="M413.464 55.4531H69.4824V307.93H413.464V55.4531Z" fill="url(#paint0_linear)"/>
<path d="M389.007 397.268C383.208 393.917 374.609 393.753 368.248 396.424L271.824 340.381C270.371 339.537 268.473 340.029 267.618 341.493C266.763 342.958 267.267 344.844 268.731 345.699L362.602 400.255C358.501 405.245 360.645 410.915 366.151 414.102C372.594 417.827 382.669 417.827 389.089 414.102C396.727 409.638 396.446 401.567 389.007 397.268ZM385.984 408.783C381.451 411.419 373.766 411.419 369.209 408.783C365.917 406.897 365.624 404.648 369.15 402.598C373.672 399.962 381.369 399.974 385.926 402.598C389.276 404.519 389.499 406.733 385.984 408.783Z" fill="white"/>
<path d="M389.007 397.268C383.208 393.917 374.609 393.753 368.248 396.424L271.824 340.381C270.371 339.537 268.473 340.029 267.618 341.493C266.763 342.958 267.267 344.844 268.731 345.699L362.602 400.255C358.501 405.245 360.645 410.915 366.151 414.102C372.594 417.827 382.669 417.827 389.089 414.102C396.727 409.638 396.446 401.567 389.007 397.268ZM385.984 408.783C381.451 411.419 373.766 411.419 369.209 408.783C365.917 406.897 365.624 404.648 369.15 402.598C373.672 399.962 381.369 399.974 385.926 402.598C389.276 404.519 389.499 406.733 385.984 408.783Z" fill="url(#paint1_linear)"/>
<path d="M326.209 422.652C325.283 421.715 331.398 425.616 228.003 365.402C226.551 364.559 224.653 365.051 223.798 366.515C222.943 367.979 223.446 369.865 224.911 370.721L317.938 424.784L298.644 435.925C292.283 433.383 283.86 433.582 278.178 436.886C270.669 441.255 270.704 449.362 278.248 453.708C284.691 457.433 294.766 457.433 301.186 453.708C304.817 451.599 306.809 448.612 306.809 445.309C306.809 443.282 305.919 441.361 304.454 439.662L325.576 427.467L325.599 427.455C327.251 426.495 327.661 424.117 326.209 422.652ZM298.105 448.378C293.571 451.014 285.898 451.002 281.329 448.378C278.037 446.48 277.756 444.231 281.271 442.192C285.113 439.955 291.732 439.334 297.05 441.818C297.39 442.052 297.753 442.181 298.152 442.274C299.71 443.2 300.67 444.325 300.67 445.309C300.67 446.293 299.71 447.441 298.105 448.378Z" fill="white"/>
<path d="M326.209 422.652C325.283 421.715 331.398 425.616 228.003 365.402C226.551 364.559 224.653 365.051 223.798 366.515C222.943 367.979 223.446 369.865 224.911 370.721L317.938 424.784L298.644 435.925C292.283 433.383 283.86 433.582 278.178 436.886C270.669 441.255 270.704 449.362 278.248 453.708C284.691 457.433 294.766 457.433 301.186 453.708C304.817 451.599 306.809 448.612 306.809 445.309C306.809 443.282 305.919 441.361 304.454 439.662L325.576 427.467L325.599 427.455C327.251 426.495 327.661 424.117 326.209 422.652ZM298.105 448.378C293.571 451.014 285.898 451.002 281.329 448.378C278.037 446.48 277.756 444.231 281.271 442.192C285.113 439.955 291.732 439.334 297.05 441.818C297.39 442.052 297.753 442.181 298.152 442.274C299.71 443.2 300.67 444.325 300.67 445.309C300.67 446.293 299.71 447.441 298.105 448.378Z" fill="url(#paint2_linear)"/>
<path d="M437.301 344.25C430.858 340.524 420.783 340.536 414.363 344.25C408.975 347.389 406.796 353.001 410.861 358.015L390.934 369.519L294.837 313.674C293.385 312.819 291.499 313.334 290.632 314.787C289.777 316.251 290.28 318.138 291.745 318.993L389.341 375.704C390.372 376.313 391.52 376.278 392.445 375.739L416.484 361.857C419.342 363.075 422.576 363.86 425.914 363.86C430.038 363.86 434.173 362.923 437.371 361.061C445.033 356.609 444.74 348.549 437.301 344.25ZM434.29 355.754C429.757 358.39 422.072 358.378 417.515 355.754C414.211 353.844 413.953 351.607 417.456 349.568C421.978 346.932 429.675 346.944 434.232 349.568C437.57 351.501 437.793 353.704 434.29 355.754Z" fill="white"/>
<path d="M437.301 344.25C430.858 340.524 420.783 340.536 414.363 344.25C408.975 347.389 406.796 353.001 410.861 358.015L390.934 369.519L294.837 313.674C293.385 312.819 291.499 313.334 290.632 314.787C289.777 316.251 290.28 318.138 291.745 318.993L389.341 375.704C390.372 376.313 391.52 376.278 392.445 375.739L416.484 361.857C419.342 363.075 422.576 363.86 425.914 363.86C430.038 363.86 434.173 362.923 437.371 361.061C445.033 356.609 444.74 348.549 437.301 344.25ZM434.29 355.754C429.757 358.39 422.072 358.378 417.515 355.754C414.211 353.844 413.953 351.607 417.456 349.568C421.978 346.932 429.675 346.944 434.232 349.568C437.57 351.501 437.793 353.704 434.29 355.754Z" fill="url(#paint3_linear)"/>
<path d="M69.4824 302.804L241.479 203.498L413.476 302.804V324.231L241.491 423.525L69.4824 324.219V302.804Z" fill="#F3F4FF"/>
<path d="M241.482 423.53L413.467 324.235V302.809L241.482 402.103V423.53Z" fill="#DADBE9"/>
<path d="M241.491 423.53L69.4824 324.223V302.809L241.491 402.103V423.53Z" fill="#C6C8E2"/>
<path d="M241.485 217.75L94.1719 302.811L241.485 387.872L388.799 302.811L241.485 217.75Z" fill="#C6C7D5"/>
<g opacity="0.75">
<path opacity="0.75" d="M333.172 164.789L241.445 218.091L149.121 164.789L240.848 111.486L333.172 164.789Z" fill="white"/>
<path opacity="0.75" d="M333.182 164.783L332.877 270.849L241.15 324.151L241.455 218.085L333.182 164.783Z" fill="white"/>
<path opacity="0.75" d="M241.443 218.085L241.139 324.151L148.826 270.849L149.119 164.783L241.443 218.085Z" fill="white"/>
</g>
<path d="M333.227 189.162L241.5 242.464L149.176 189.162L240.903 135.859L333.227 189.162Z" fill="#525DCF"/>
<path d="M333.199 189.141L332.895 295.206L241.168 348.509L241.473 242.443L333.199 189.141Z" fill="#5E6AE4"/>
<path d="M241.461 242.443L241.156 348.509L148.844 295.206L149.137 189.141L241.461 242.443Z" fill="#4B48FD"/>
<path d="M313.743 254.971C314.247 258.204 314.223 261.719 313.673 265.561C312.829 271.864 311.131 277.71 308.589 283.11C305.555 289.6 301.724 294.181 297.108 296.852C295.96 297.508 294.718 297.824 293.383 297.789C292.446 297.66 291.415 297.929 290.29 298.585C289.142 299.241 288.123 300.167 287.209 301.362C285.862 302.955 284.62 304.08 283.472 304.736C278.857 307.395 275.014 307.243 271.957 304.279C269.391 301.83 267.669 297.953 266.79 292.646C266.216 289.459 266.181 285.968 266.661 282.161C267.212 277.991 268.278 274.195 269.824 270.751C271.593 266.873 273.866 263.839 276.642 261.672C277.099 261.321 277.603 260.993 278.142 260.676C279.63 259.809 281.481 259.071 283.671 258.474C286.225 257.806 288.404 257.548 290.173 257.666C291.942 255.51 294.121 253.261 296.663 250.976C298.854 249.043 300.693 247.661 302.192 246.794C302.743 246.478 303.247 246.232 303.704 246.056C306.468 245.025 308.741 245.435 310.533 247.263C312.091 248.903 313.169 251.457 313.743 254.971Z" fill="white"/>
<path d="M290.154 251.759L288.549 252.579C288.408 251.513 288.397 250.213 288.537 248.655C288.83 245.55 289.627 242.832 290.974 240.489C291.958 238.861 293.282 237.326 294.898 235.897C296.035 234.831 297.276 233.906 298.635 233.121L300.229 232.312L300.334 234.105C300.334 235.663 300.17 237.186 299.819 238.685C299.397 240.806 298.729 242.727 297.804 244.402C296.82 246.042 295.508 247.565 293.879 249.006C292.743 250.072 291.501 250.986 290.154 251.759Z" fill="white"/>
<path d="M217.778 261.137C221.479 263.269 225.17 267.358 227.981 272.911C225.17 275.183 221.503 274.996 217.824 272.875C214.521 270.966 211.229 267.498 208.546 262.848L207.527 261.079C201.845 251.262 202.15 241.749 208.605 239.336C213.677 247.103 214.943 254.917 212.436 259.462C214.146 259.509 215.962 260.083 217.778 261.137Z" fill="white"/>
<path d="M200.614 257.798C208.498 266.783 211.732 279.599 207.854 286.441C206.237 289.299 203.613 290.67 200.532 290.611L187.47 290.4L180.207 277.83C179.809 277.151 179.282 276.612 178.766 276.319C178.251 276.026 177.724 275.944 177.314 276.167C176.505 276.612 176.505 278.111 177.302 279.494L183.569 290.342L166.454 290.061C166.056 290.061 165.622 289.92 165.2 289.674C164.146 289.065 163.115 287.8 162.623 286.335C162.237 285.175 162.272 284.121 162.635 283.442L179.129 254.295L185.537 265.389C185.936 266.069 186.463 266.608 186.978 266.9C187.505 267.205 188.033 267.264 188.431 267.053C189.239 266.596 189.239 265.108 188.443 263.726L181.402 251.531C184.471 249.035 189.017 249.258 193.703 251.964C196.022 253.3 198.377 255.256 200.614 257.798Z" fill="white"/>
<defs>
<linearGradient id="paint0_linear" x1="241.473" y1="55.4531" x2="241.473" y2="307.93" gradientUnits="userSpaceOnUse">
<stop stop-color="#E0E3FF" stop-opacity="0"/>
<stop offset="1" stop-color="#E0E3FF"/>
</linearGradient>
<linearGradient id="paint1_linear" x1="330.952" y1="339.969" x2="330.952" y2="416.896" gradientUnits="userSpaceOnUse">
<stop stop-color="white"/>
<stop offset="1" stop-color="white" stop-opacity="0"/>
</linearGradient>
<linearGradient id="paint2_linear" x1="275.24" y1="364.99" x2="275.24" y2="456.502" gradientUnits="userSpaceOnUse">
<stop stop-color="white"/>
<stop offset="1" stop-color="white" stop-opacity="0"/>
</linearGradient>
<linearGradient id="paint3_linear" x1="366.607" y1="313.26" x2="366.607" y2="376.152" gradientUnits="userSpaceOnUse">
<stop stop-color="white"/>
<stop offset="1" stop-color="white" stop-opacity="0"/>
</linearGradient>
</defs>
</svg>
