<svg width="100" height="100" viewBox="0 0 100 100" fill="none" xmlns="http://www.w3.org/2000/svg">
<path d="M91.6673 38.5006L61.709 35.9173L50.0007 8.33398L38.2923 35.959L8.33398 38.5006L31.084 58.209L24.2507 87.5006L50.0007 71.959L75.7507 87.5006L68.959 58.209L91.6673 38.5006ZM50.0007 64.1673L34.334 73.6256L38.5007 55.7923L24.6673 43.7923L42.9173 42.209L50.0007 25.4173L57.1257 42.2507L75.3757 43.834L61.5423 55.834L65.709 73.6673L50.0007 64.1673Z" fill="white"/>
<path d="M91.6673 38.5006L61.709 35.9173L50.0007 8.33398L38.2923 35.959L8.33398 38.5006L31.084 58.209L24.2507 87.5006L50.0007 71.959L75.7507 87.5006L68.959 58.209L91.6673 38.5006ZM50.0007 64.1673L34.334 73.6256L38.5007 55.7923L24.6673 43.7923L42.9173 42.209L50.0007 25.4173L57.1257 42.2507L75.3757 43.834L61.5423 55.834L65.709 73.6673L50.0007 64.1673Z" fill="url(#paint0_linear)"/>
<defs>
<linearGradient id="paint0_linear" x1="50.0007" y1="8.33398" x2="50.0007" y2="87.5006" gradientUnits="userSpaceOnUse">
<stop stop-color="white"/>
<stop offset="1" stop-color="white" stop-opacity="0"/>
</linearGradient>
</defs>
</svg>
