<svg width="100" height="100" viewBox="0 0 100 100" fill="none" xmlns="http://www.w3.org/2000/svg">
<path d="M50.0007 8.33398C27.0007 8.33398 8.33398 27.0007 8.33398 50.0007C8.33398 73.0007 27.0007 91.6673 50.0007 91.6673C73.0007 91.6673 91.6673 73.0007 91.6673 50.0007C91.6673 27.0007 73.0007 8.33398 50.0007 8.33398ZM29.459 76.1673C31.2507 72.4173 42.1673 68.7507 50.0007 68.7507C57.834 68.7507 68.7923 72.4173 70.5423 76.1673C64.8757 80.6673 57.7507 83.334 50.0007 83.334C42.2507 83.334 35.1257 80.6673 29.459 76.1673ZM76.5007 70.1257C70.5423 62.8757 56.084 60.4173 50.0007 60.4173C43.9173 60.4173 29.459 62.8757 23.5007 70.1257C19.2507 64.5423 16.6673 57.584 16.6673 50.0007C16.6673 31.6257 31.6257 16.6673 50.0007 16.6673C68.3757 16.6673 83.334 31.6257 83.334 50.0007C83.334 57.584 80.7507 64.5423 76.5007 70.1257ZM50.0007 25.0007C41.9173 25.0007 35.4173 31.5007 35.4173 39.584C35.4173 47.6673 41.9173 54.1673 50.0007 54.1673C58.084 54.1673 64.584 47.6673 64.584 39.584C64.584 31.5007 58.084 25.0007 50.0007 25.0007ZM50.0007 45.834C46.5423 45.834 43.7507 43.0423 43.7507 39.584C43.7507 36.1257 46.5423 33.334 50.0007 33.334C53.459 33.334 56.2507 36.1257 56.2507 39.584C56.2507 43.0423 53.459 45.834 50.0007 45.834Z" fill="white"/>
<path d="M50.0007 8.33398C27.0007 8.33398 8.33398 27.0007 8.33398 50.0007C8.33398 73.0007 27.0007 91.6673 50.0007 91.6673C73.0007 91.6673 91.6673 73.0007 91.6673 50.0007C91.6673 27.0007 73.0007 8.33398 50.0007 8.33398ZM29.459 76.1673C31.2507 72.4173 42.1673 68.7507 50.0007 68.7507C57.834 68.7507 68.7923 72.4173 70.5423 76.1673C64.8757 80.6673 57.7507 83.334 50.0007 83.334C42.2507 83.334 35.1257 80.6673 29.459 76.1673ZM76.5007 70.1257C70.5423 62.8757 56.084 60.4173 50.0007 60.4173C43.9173 60.4173 29.459 62.8757 23.5007 70.1257C19.2507 64.5423 16.6673 57.584 16.6673 50.0007C16.6673 31.6257 31.6257 16.6673 50.0007 16.6673C68.3757 16.6673 83.334 31.6257 83.334 50.0007C83.334 57.584 80.7507 64.5423 76.5007 70.1257ZM50.0007 25.0007C41.9173 25.0007 35.4173 31.5007 35.4173 39.584C35.4173 47.6673 41.9173 54.1673 50.0007 54.1673C58.084 54.1673 64.584 47.6673 64.584 39.584C64.584 31.5007 58.084 25.0007 50.0007 25.0007ZM50.0007 45.834C46.5423 45.834 43.7507 43.0423 43.7507 39.584C43.7507 36.1257 46.5423 33.334 50.0007 33.334C53.459 33.334 56.2507 36.1257 56.2507 39.584C56.2507 43.0423 53.459 45.834 50.0007 45.834Z" fill="url(#paint0_linear)"/>
<defs>
<linearGradient id="paint0_linear" x1="50.0007" y1="8.33398" x2="50.0007" y2="91.6673" gradientUnits="userSpaceOnUse">
<stop stop-color="white"/>
<stop offset="1" stop-color="white" stop-opacity="0"/>
</linearGradient>
</defs>
</svg>
