<svg width="100" height="100" viewBox="0 0 100 100" fill="none" xmlns="http://www.w3.org/2000/svg">
<path d="M79.1667 20.8333V79.1667H20.8333V20.8333H79.1667ZM79.1667 12.5H20.8333C16.25 12.5 12.5 16.25 12.5 20.8333V79.1667C12.5 83.75 16.25 87.5 20.8333 87.5H79.1667C83.75 87.5 87.5 83.75 87.5 79.1667V20.8333C87.5 16.25 83.75 12.5 79.1667 12.5Z" fill="white"/>
<path d="M79.1667 20.8333V79.1667H20.8333V20.8333H79.1667ZM79.1667 12.5H20.8333C16.25 12.5 12.5 16.25 12.5 20.8333V79.1667C12.5 83.75 16.25 87.5 20.8333 87.5H79.1667C83.75 87.5 87.5 83.75 87.5 79.1667V20.8333C87.5 16.25 83.75 12.5 79.1667 12.5Z" fill="url(#paint0_linear)"/>
<defs>
<linearGradient id="paint0_linear" x1="50" y1="12.5" x2="50" y2="87.5" gradientUnits="userSpaceOnUse">
<stop stop-color="white"/>
<stop offset="1" stop-color="white" stop-opacity="0"/>
</linearGradient>
</defs>
</svg>
