<svg width="40" height="40" viewBox="0 0 100 100" fill="none" xmlns="http://www.w3.org/2000/svg" style="fill:#fff;">
<path d="M50.0007 29.1667V12.5H8.33398V87.5H91.6673V29.1667H50.0007ZM25.0007 79.1667H16.6673V70.8333H25.0007V79.1667ZM25.0007 62.5H16.6673V54.1667H25.0007V62.5ZM25.0007 45.8333H16.6673V37.5H25.0007V45.8333ZM25.0007 29.1667H16.6673V20.8333H25.0007V29.1667ZM41.6673 79.1667H33.334V70.8333H41.6673V79.1667ZM41.6673 62.5H33.334V54.1667H41.6673V62.5ZM41.6673 45.8333H33.334V37.5H41.6673V45.8333ZM41.6673 29.1667H33.334V20.8333H41.6673V29.1667ZM83.334 79.1667H50.0007V70.8333H58.334V62.5H50.0007V54.1667H58.334V45.8333H50.0007V37.5H83.334V79.1667ZM75.0007 45.8333H66.6673V54.1667H75.0007V45.8333ZM75.0007 62.5H66.6673V70.8333H75.0007V62.5Z"/>
</svg>
