<svg width="100" height="100" viewBox="0 0 100 100" fill="none" xmlns="http://www.w3.org/2000/svg">
<path d="M91.6673 24.9993C91.6673 20.416 87.9173 16.666 83.334 16.666H16.6673C12.084 16.666 8.33398 20.416 8.33398 24.9993V74.9993C8.33398 79.5827 12.084 83.3327 16.6673 83.3327H83.334C87.9173 83.3327 91.6673 79.5827 91.6673 74.9993V24.9993ZM83.334 24.9993L50.0007 45.8327L16.6673 24.9993H83.334ZM83.334 74.9993H16.6673V33.3327L50.0007 54.166L83.334 33.3327V74.9993Z" fill="white"/>
<path d="M91.6673 24.9993C91.6673 20.416 87.9173 16.666 83.334 16.666H16.6673C12.084 16.666 8.33398 20.416 8.33398 24.9993V74.9993C8.33398 79.5827 12.084 83.3327 16.6673 83.3327H83.334C87.9173 83.3327 91.6673 79.5827 91.6673 74.9993V24.9993ZM83.334 24.9993L50.0007 45.8327L16.6673 24.9993H83.334ZM83.334 74.9993H16.6673V33.3327L50.0007 54.166L83.334 33.3327V74.9993Z" fill="url(#paint0_linear)"/>
<defs>
<linearGradient id="paint0_linear" x1="50.0007" y1="16.666" x2="50.0007" y2="83.3327" gradientUnits="userSpaceOnUse">
<stop stop-color="white"/>
<stop offset="1" stop-color="white" stop-opacity="0"/>
</linearGradient>
</defs>
</svg>
