<svg width="100" height="100" viewBox="0 0 100 100" fill="none" xmlns="http://www.w3.org/2000/svg">
<path d="M58.5833 37.5833L62.4167 41.4167L24.6667 79.1667H20.8333V75.3333L58.5833 37.5833ZM73.5833 12.5C72.5417 12.5 71.4583 12.9167 70.6667 13.7083L63.0417 21.3333L78.6667 36.9583L86.2917 29.3333C87.9167 27.7083 87.9167 25.0833 86.2917 23.4583L76.5417 13.7083C75.7083 12.875 74.6667 12.5 73.5833 12.5ZM58.5833 25.7917L12.5 71.875V87.5H28.125L74.2083 41.4167L58.5833 25.7917Z" fill="white"/>
<path d="M58.5833 37.5833L62.4167 41.4167L24.6667 79.1667H20.8333V75.3333L58.5833 37.5833ZM73.5833 12.5C72.5417 12.5 71.4583 12.9167 70.6667 13.7083L63.0417 21.3333L78.6667 36.9583L86.2917 29.3333C87.9167 27.7083 87.9167 25.0833 86.2917 23.4583L76.5417 13.7083C75.7083 12.875 74.6667 12.5 73.5833 12.5ZM58.5833 25.7917L12.5 71.875V87.5H28.125L74.2083 41.4167L58.5833 25.7917Z" fill="url(#paint0_linear)"/>
<defs>
<linearGradient id="paint0_linear" x1="50.0052" y1="12.5" x2="50.0052" y2="87.5" gradientUnits="userSpaceOnUse">
<stop stop-color="white"/>
<stop offset="1" stop-color="white" stop-opacity="0"/>
</linearGradient>
</defs>
</svg>
