<svg width="100" height="100" viewBox="0 0 100 100" fill="none" xmlns="http://www.w3.org/2000/svg">
<path d="M16.6667 54.1667C21.25 54.1667 25 50.4167 25 45.8333C25 41.25 21.25 37.5 16.6667 37.5C12.0833 37.5 8.33333 41.25 8.33333 45.8333C8.33333 50.4167 12.0833 54.1667 16.6667 54.1667ZM21.375 58.75C19.8333 58.5 18.2917 58.3333 16.6667 58.3333C12.5417 58.3333 8.625 59.2083 5.08333 60.75C2 62.0833 0 65.0833 0 68.4583V75H18.75V68.2917C18.75 64.8333 19.7083 61.5833 21.375 58.75ZM83.3333 54.1667C87.9167 54.1667 91.6667 50.4167 91.6667 45.8333C91.6667 41.25 87.9167 37.5 83.3333 37.5C78.75 37.5 75 41.25 75 45.8333C75 50.4167 78.75 54.1667 83.3333 54.1667ZM100 68.4583C100 65.0833 98 62.0833 94.9167 60.75C91.375 59.2083 87.4583 58.3333 83.3333 58.3333C81.7083 58.3333 80.1667 58.5 78.625 58.75C80.2917 61.5833 81.25 64.8333 81.25 68.2917V75H100V68.4583ZM67.6667 56.875C62.7917 54.7083 56.7917 53.125 50 53.125C43.2083 53.125 37.2083 54.75 32.3333 56.875C27.8333 58.875 25 63.375 25 68.2917V75H75V68.2917C75 63.375 72.1667 58.875 67.6667 56.875ZM33.625 66.6667C34 65.7083 34.1667 65.0417 37.4167 63.7917C41.4583 62.2083 45.7083 61.4583 50 61.4583C54.2917 61.4583 58.5417 62.2083 62.5833 63.7917C65.7917 65.0417 65.9583 65.7083 66.375 66.6667H33.625ZM50 33.3333C52.2917 33.3333 54.1667 35.2083 54.1667 37.5C54.1667 39.7917 52.2917 41.6667 50 41.6667C47.7083 41.6667 45.8333 39.7917 45.8333 37.5C45.8333 35.2083 47.7083 33.3333 50 33.3333ZM50 25C43.0833 25 37.5 30.5833 37.5 37.5C37.5 44.4167 43.0833 50 50 50C56.9167 50 62.5 44.4167 62.5 37.5C62.5 30.5833 56.9167 25 50 25Z" fill="white"/>
</svg>
