<svg width="100" height="100" viewBox="0 0 100 100" fill="none" xmlns="http://www.w3.org/2000/svg">
<path d="M45.834 75.0007H54.1673V66.6673H45.834V75.0007ZM50.0007 8.33398C27.0007 8.33398 8.33398 27.0007 8.33398 50.0007C8.33398 73.0007 27.0007 91.6673 50.0007 91.6673C73.0007 91.6673 91.6673 73.0007 91.6673 50.0007C91.6673 27.0007 73.0007 8.33398 50.0007 8.33398ZM50.0007 83.334C31.6257 83.334 16.6673 68.3757 16.6673 50.0007C16.6673 31.6257 31.6257 16.6673 50.0007 16.6673C68.3757 16.6673 83.334 31.6257 83.334 50.0007C83.334 68.3757 68.3757 83.334 50.0007 83.334ZM50.0007 25.0007C40.7923 25.0007 33.334 32.459 33.334 41.6673H41.6673C41.6673 37.084 45.4173 33.334 50.0007 33.334C54.584 33.334 58.334 37.084 58.334 41.6673C58.334 50.0007 45.834 48.959 45.834 62.5007H54.1673C54.1673 53.1257 66.6673 52.084 66.6673 41.6673C66.6673 32.459 59.209 25.0007 50.0007 25.0007Z" fill="white"/>
<path d="M45.834 75.0007H54.1673V66.6673H45.834V75.0007ZM50.0007 8.33398C27.0007 8.33398 8.33398 27.0007 8.33398 50.0007C8.33398 73.0007 27.0007 91.6673 50.0007 91.6673C73.0007 91.6673 91.6673 73.0007 91.6673 50.0007C91.6673 27.0007 73.0007 8.33398 50.0007 8.33398ZM50.0007 83.334C31.6257 83.334 16.6673 68.3757 16.6673 50.0007C16.6673 31.6257 31.6257 16.6673 50.0007 16.6673C68.3757 16.6673 83.334 31.6257 83.334 50.0007C83.334 68.3757 68.3757 83.334 50.0007 83.334ZM50.0007 25.0007C40.7923 25.0007 33.334 32.459 33.334 41.6673H41.6673C41.6673 37.084 45.4173 33.334 50.0007 33.334C54.584 33.334 58.334 37.084 58.334 41.6673C58.334 50.0007 45.834 48.959 45.834 62.5007H54.1673C54.1673 53.1257 66.6673 52.084 66.6673 41.6673C66.6673 32.459 59.209 25.0007 50.0007 25.0007Z" fill="url(#paint0_linear)"/>
<defs>
<linearGradient id="paint0_linear" x1="50.0007" y1="8.33398" x2="50.0007" y2="91.6673" gradientUnits="userSpaceOnUse">
<stop stop-color="white"/>
<stop offset="1" stop-color="white" stop-opacity="0"/>
</linearGradient>
</defs>
</svg>
