<svg width="40" height="40" viewBox="0 0 100 100" fill="#fff;" xmlns="http://www.w3.org/2000/svg">
<path d="M79.1667 20.8333V79.1667H20.8333V20.8333H79.1667ZM79.1667 12.5H20.8333C16.25 12.5 12.5 16.25 12.5 20.8333V79.1667C12.5 83.75 16.25 87.5 20.8333 87.5H79.1667C83.75 87.5 87.5 83.75 87.5 79.1667V20.8333C87.5 16.25 83.75 12.5 79.1667 12.5Z" fill="white"/>
<path d="M79.1667 20.8333V79.1667H20.8333V20.8333H79.1667ZM79.1667 12.5H20.8333C16.25 12.5 12.5 16.25 12.5 20.8333V79.1667C12.5 83.75 16.25 87.5 20.8333 87.5H79.1667C83.75 87.5 87.5 83.75 87.5 79.1667V20.8333C87.5 16.25 83.75 12.5 79.1667 12.5Z" fill="url(#paint0_linear)"/>
<path d="M58.3327 70.8327H29.166V62.4993H58.3327V70.8327ZM70.8327 54.166H29.166V45.8327H70.8327V54.166ZM70.8327 37.4993H29.166V29.166H70.8327V37.4993Z" fill="white"/>
<path d="M58.3327 70.8327H29.166V62.4993H58.3327V70.8327ZM70.8327 54.166H29.166V45.8327H70.8327V54.166ZM70.8327 37.4993H29.166V29.166H70.8327V37.4993Z" fill="url(#paint1_linear)"/>
</svg>
