<svg width="100" height="100" viewBox="0 0 100 100" fill="none" xmlns="http://www.w3.org/2000/svg">
<path d="M50 8.33398L27.0833 45.834H72.9167L50 8.33398ZM50 24.334L58.0417 37.5007H41.9167L50 24.334ZM72.9167 54.1673C62.5417 54.1673 54.1667 62.5423 54.1667 72.9173C54.1667 83.2923 62.5417 91.6673 72.9167 91.6673C83.2917 91.6673 91.6667 83.2923 91.6667 72.9173C91.6667 62.5423 83.2917 54.1673 72.9167 54.1673ZM72.9167 83.334C67.1667 83.334 62.5 78.6673 62.5 72.9173C62.5 67.1673 67.1667 62.5007 72.9167 62.5007C78.6667 62.5007 83.3333 67.1673 83.3333 72.9173C83.3333 78.6673 78.6667 83.334 72.9167 83.334ZM12.5 89.584H45.8333V56.2507H12.5V89.584ZM20.8333 64.584H37.5V81.2507H20.8333V64.584Z" fill="white"/>
<path d="M50 8.33398L27.0833 45.834H72.9167L50 8.33398ZM50 24.334L58.0417 37.5007H41.9167L50 24.334ZM72.9167 54.1673C62.5417 54.1673 54.1667 62.5423 54.1667 72.9173C54.1667 83.2923 62.5417 91.6673 72.9167 91.6673C83.2917 91.6673 91.6667 83.2923 91.6667 72.9173C91.6667 62.5423 83.2917 54.1673 72.9167 54.1673ZM72.9167 83.334C67.1667 83.334 62.5 78.6673 62.5 72.9173C62.5 67.1673 67.1667 62.5007 72.9167 62.5007C78.6667 62.5007 83.3333 67.1673 83.3333 72.9173C83.3333 78.6673 78.6667 83.334 72.9167 83.334ZM12.5 89.584H45.8333V56.2507H12.5V89.584ZM20.8333 64.584H37.5V81.2507H20.8333V64.584Z" fill="url(#paint0_linear)"/>
<defs>
<linearGradient id="paint0_linear" x1="52.0833" y1="8.33398" x2="52.0833" y2="91.6673" gradientUnits="userSpaceOnUse">
<stop stop-color="white"/>
<stop offset="1" stop-color="white" stop-opacity="0"/>
</linearGradient>
</defs>
</svg>
