<svg width="100" height="100" viewBox="0 0 100 100" fill="none" xmlns="http://www.w3.org/2000/svg">
<path d="M45.834 29.1673H54.1673V37.5007H45.834V29.1673ZM45.834 45.834H54.1673V70.834H45.834V45.834ZM50.0007 8.33398C27.0007 8.33398 8.33398 27.0007 8.33398 50.0007C8.33398 73.0007 27.0007 91.6673 50.0007 91.6673C73.0007 91.6673 91.6673 73.0007 91.6673 50.0007C91.6673 27.0007 73.0007 8.33398 50.0007 8.33398ZM50.0007 83.334C31.6257 83.334 16.6673 68.3757 16.6673 50.0007C16.6673 31.6257 31.6257 16.6673 50.0007 16.6673C68.3757 16.6673 83.334 31.6257 83.334 50.0007C83.334 68.3757 68.3757 83.334 50.0007 83.334Z" fill="white"/>
<path d="M45.834 29.1673H54.1673V37.5007H45.834V29.1673ZM45.834 45.834H54.1673V70.834H45.834V45.834ZM50.0007 8.33398C27.0007 8.33398 8.33398 27.0007 8.33398 50.0007C8.33398 73.0007 27.0007 91.6673 50.0007 91.6673C73.0007 91.6673 91.6673 73.0007 91.6673 50.0007C91.6673 27.0007 73.0007 8.33398 50.0007 8.33398ZM50.0007 83.334C31.6257 83.334 16.6673 68.3757 16.6673 50.0007C16.6673 31.6257 31.6257 16.6673 50.0007 16.6673C68.3757 16.6673 83.334 31.6257 83.334 50.0007C83.334 68.3757 68.3757 83.334 50.0007 83.334Z" fill="url(#paint0_linear)"/>
<defs>
<linearGradient id="paint0_linear" x1="50.0007" y1="8.33398" x2="50.0007" y2="91.6673" gradientUnits="userSpaceOnUse">
<stop stop-color="white"/>
<stop offset="1" stop-color="white" stop-opacity="0"/>
</linearGradient>
</defs>
</svg>
