<svg width="100" height="100" viewBox="0 0 100 100" fill="none" xmlns="http://www.w3.org/2000/svg">
<path d="M74.9993 33.3327H70.8327V24.9994C70.8327 13.4993 61.4993 4.16602 49.9993 4.16602C38.4993 4.16602 29.166 13.4993 29.166 24.9994V33.3327H24.9993C20.416 33.3327 16.666 37.0827 16.666 41.666V83.3327C16.666 87.916 20.416 91.666 24.9993 91.666H74.9993C79.5827 91.666 83.3327 87.916 83.3327 83.3327V41.666C83.3327 37.0827 79.5827 33.3327 74.9993 33.3327ZM37.4993 24.9994C37.4993 18.0827 43.0827 12.4993 49.9993 12.4993C56.916 12.4993 62.4993 18.0827 62.4993 24.9994V33.3327H37.4993V24.9994ZM74.9993 83.3327H24.9993V41.666H74.9993V83.3327ZM49.9993 70.8327C54.5827 70.8327 58.3327 67.0827 58.3327 62.4994C58.3327 57.916 54.5827 54.166 49.9993 54.166C45.416 54.166 41.666 57.916 41.666 62.4994C41.666 67.0827 45.416 70.8327 49.9993 70.8327Z" fill="white"/>
<path d="M74.9993 33.3327H70.8327V24.9994C70.8327 13.4993 61.4993 4.16602 49.9993 4.16602C38.4993 4.16602 29.166 13.4993 29.166 24.9994V33.3327H24.9993C20.416 33.3327 16.666 37.0827 16.666 41.666V83.3327C16.666 87.916 20.416 91.666 24.9993 91.666H74.9993C79.5827 91.666 83.3327 87.916 83.3327 83.3327V41.666C83.3327 37.0827 79.5827 33.3327 74.9993 33.3327ZM37.4993 24.9994C37.4993 18.0827 43.0827 12.4993 49.9993 12.4993C56.916 12.4993 62.4993 18.0827 62.4993 24.9994V33.3327H37.4993V24.9994ZM74.9993 83.3327H24.9993V41.666H74.9993V83.3327ZM49.9993 70.8327C54.5827 70.8327 58.3327 67.0827 58.3327 62.4994C58.3327 57.916 54.5827 54.166 49.9993 54.166C45.416 54.166 41.666 57.916 41.666 62.4994C41.666 67.0827 45.416 70.8327 49.9993 70.8327Z" fill="url(#paint0_linear)"/>
<defs>
<linearGradient id="paint0_linear" x1="49.9993" y1="4.16602" x2="49.9993" y2="91.666" gradientUnits="userSpaceOnUse">
<stop stop-color="white"/>
<stop offset="1" stop-color="white" stop-opacity="0"/>
</linearGradient>
</defs>
</svg>
