<svg width="100" height="100" viewBox="0 0 100 100" fill="none" xmlns="http://www.w3.org/2000/svg">
<path d="M49.959 8.33398C26.959 8.33398 8.33398 27.0007 8.33398 50.0007C8.33398 73.0007 26.959 91.6673 49.959 91.6673C73.0007 91.6673 91.6673 73.0007 91.6673 50.0007C91.6673 27.0007 73.0007 8.33398 49.959 8.33398ZM78.834 33.334H66.5423C65.209 28.1257 63.2923 23.1257 60.7923 18.5007C68.459 21.1257 74.834 26.459 78.834 33.334ZM50.0007 16.834C53.459 21.834 56.1673 27.3757 57.959 33.334H42.0423C43.834 27.3757 46.5423 21.834 50.0007 16.834ZM17.7507 58.334C17.084 55.6673 16.6673 52.8757 16.6673 50.0007C16.6673 47.1257 17.084 44.334 17.7507 41.6673H31.834C31.5007 44.4173 31.2507 47.1673 31.2507 50.0007C31.2507 52.834 31.5007 55.584 31.834 58.334H17.7507ZM21.1673 66.6673H33.459C34.7923 71.8757 36.709 76.8757 39.209 81.5007C31.5423 78.8757 25.1673 73.584 21.1673 66.6673ZM33.459 33.334H21.1673C25.1673 26.4173 31.5423 21.1257 39.209 18.5007C36.709 23.1257 34.7923 28.1257 33.459 33.334ZM50.0007 83.1673C46.5423 78.1673 43.834 72.6257 42.0423 66.6673H57.959C56.1673 72.6257 53.459 78.1673 50.0007 83.1673ZM59.7507 58.334H40.2507C39.8757 55.584 39.584 52.834 39.584 50.0007C39.584 47.1673 39.8757 44.3757 40.2507 41.6673H59.7507C60.1257 44.3757 60.4173 47.1673 60.4173 50.0007C60.4173 52.834 60.1257 55.584 59.7507 58.334ZM60.7923 81.5007C63.2923 76.8757 65.209 71.8757 66.5423 66.6673H78.834C74.834 73.5423 68.459 78.8757 60.7923 81.5007ZM68.1673 58.334C68.5007 55.584 68.7507 52.834 68.7507 50.0007C68.7507 47.1673 68.5007 44.4173 68.1673 41.6673H82.2507C82.9173 44.334 83.334 47.1257 83.334 50.0007C83.334 52.8757 82.9173 55.6673 82.2507 58.334H68.1673Z" fill="white"/>
<path d="M49.959 8.33398C26.959 8.33398 8.33398 27.0007 8.33398 50.0007C8.33398 73.0007 26.959 91.6673 49.959 91.6673C73.0007 91.6673 91.6673 73.0007 91.6673 50.0007C91.6673 27.0007 73.0007 8.33398 49.959 8.33398ZM78.834 33.334H66.5423C65.209 28.1257 63.2923 23.1257 60.7923 18.5007C68.459 21.1257 74.834 26.459 78.834 33.334ZM50.0007 16.834C53.459 21.834 56.1673 27.3757 57.959 33.334H42.0423C43.834 27.3757 46.5423 21.834 50.0007 16.834ZM17.7507 58.334C17.084 55.6673 16.6673 52.8757 16.6673 50.0007C16.6673 47.1257 17.084 44.334 17.7507 41.6673H31.834C31.5007 44.4173 31.2507 47.1673 31.2507 50.0007C31.2507 52.834 31.5007 55.584 31.834 58.334H17.7507ZM21.1673 66.6673H33.459C34.7923 71.8757 36.709 76.8757 39.209 81.5007C31.5423 78.8757 25.1673 73.584 21.1673 66.6673ZM33.459 33.334H21.1673C25.1673 26.4173 31.5423 21.1257 39.209 18.5007C36.709 23.1257 34.7923 28.1257 33.459 33.334ZM50.0007 83.1673C46.5423 78.1673 43.834 72.6257 42.0423 66.6673H57.959C56.1673 72.6257 53.459 78.1673 50.0007 83.1673ZM59.7507 58.334H40.2507C39.8757 55.584 39.584 52.834 39.584 50.0007C39.584 47.1673 39.8757 44.3757 40.2507 41.6673H59.7507C60.1257 44.3757 60.4173 47.1673 60.4173 50.0007C60.4173 52.834 60.1257 55.584 59.7507 58.334ZM60.7923 81.5007C63.2923 76.8757 65.209 71.8757 66.5423 66.6673H78.834C74.834 73.5423 68.459 78.8757 60.7923 81.5007ZM68.1673 58.334C68.5007 55.584 68.7507 52.834 68.7507 50.0007C68.7507 47.1673 68.5007 44.4173 68.1673 41.6673H82.2507C82.9173 44.334 83.334 47.1257 83.334 50.0007C83.334 52.8757 82.9173 55.6673 82.2507 58.334H68.1673Z" fill="url(#paint0_linear)"/>
<defs>
<linearGradient id="paint0_linear" x1="50.0007" y1="8.33398" x2="50.0007" y2="91.6673" gradientUnits="userSpaceOnUse">
<stop stop-color="white"/>
<stop offset="1" stop-color="white" stop-opacity="0"/>
</linearGradient>
</defs>
</svg>
