<svg width="100" height="100" viewBox="0 0 100 100" fill="none" xmlns="http://www.w3.org/2000/svg">
<path d="M79.1667 12.4974H75V4.16406H66.6667V12.4974H33.3333V4.16406H25V12.4974H20.8333C16.25 12.4974 12.5 16.2474 12.5 20.8307V79.1641C12.5 83.7474 16.25 87.4974 20.8333 87.4974H79.1667C83.75 87.4974 87.5 83.7474 87.5 79.1641V20.8307C87.5 16.2474 83.75 12.4974 79.1667 12.4974ZM79.1667 79.1641H20.8333V37.4974H79.1667V79.1641ZM20.8333 29.1641V20.8307H79.1667V29.1641H20.8333ZM29.1667 45.8307H70.8333V54.1641H29.1667V45.8307ZM29.1667 62.4974H58.3333V70.8307H29.1667V62.4974Z" fill="white"/>
</svg>
