<svg width="100" height="100" viewBox="0 0 100 100" fill="none" xmlns="http://www.w3.org/2000/svg">
<path d="M83.3327 25.0007H91.666V83.334C91.666 87.9173 87.916 91.6673 83.3327 91.6673H24.9993V83.334H83.3327V25.0007ZM16.666 8.33398H66.666C71.2493 8.33398 74.9993 12.084 74.9993 16.6673V66.6673C74.9993 71.2507 71.2493 75.0007 66.666 75.0007H16.666C12.0827 75.0007 8.33267 71.2507 8.33267 66.6673V16.6673C8.33267 12.084 12.0827 8.33398 16.666 8.33398ZM16.666 66.6673H66.666V16.6673H16.666V66.6673Z" fill="white"/>
<path d="M83.3327 25.0007H91.666V83.334C91.666 87.9173 87.916 91.6673 83.3327 91.6673H24.9993V83.334H83.3327V25.0007ZM16.666 8.33398H66.666C71.2493 8.33398 74.9993 12.084 74.9993 16.6673V66.6673C74.9993 71.2507 71.2493 75.0007 66.666 75.0007H16.666C12.0827 75.0007 8.33267 71.2507 8.33267 66.6673V16.6673C8.33267 12.084 12.0827 8.33398 16.666 8.33398ZM16.666 66.6673H66.666V16.6673H16.666V66.6673Z" fill="url(#paint0_linear)"/>
<defs>
<linearGradient id="paint0_linear" x1="49.9993" y1="8.33398" x2="49.9993" y2="91.6673" gradientUnits="userSpaceOnUse">
<stop stop-color="white"/>
<stop offset="1" stop-color="white" stop-opacity="0"/>
</linearGradient>
</defs>
</svg>
