<svg width="100" height="100" viewBox="0 0 100 100" fill="none" xmlns="http://www.w3.org/2000/svg">
<path d="M72.125 25L78 30.875L58.9167 50L78 69.125L72.125 75L47.125 50L72.125 25Z" fill="white"/>
<path d="M72.125 25L78 30.875L58.9167 50L78 69.125L72.125 75L47.125 50L72.125 25Z" fill="url(#paint0_linear)"/>
<path d="M46.9961 25L52.8711 30.875L33.7878 50L52.8711 69.125L46.9961 75L21.9961 50L46.9961 25Z" fill="white"/>
<path d="M46.9961 25L52.8711 30.875L33.7878 50L52.8711 69.125L46.9961 75L21.9961 50L46.9961 25Z" fill="url(#paint1_linear)"/>
<defs>
<linearGradient id="paint0_linear" x1="62.5625" y1="25" x2="62.5625" y2="75" gradientUnits="userSpaceOnUse">
<stop stop-color="white"/>
<stop offset="1" stop-color="white" stop-opacity="0"/>
</linearGradient>
<linearGradient id="paint1_linear" x1="37.4336" y1="25" x2="37.4336" y2="75" gradientUnits="userSpaceOnUse">
<stop stop-color="white"/>
<stop offset="1" stop-color="white" stop-opacity="0"/>
</linearGradient>
</defs>
</svg>
