<svg width="100" height="100" viewBox="0 0 100 100" fill="none" xmlns="http://www.w3.org/2000/svg">
<path d="M49.9993 91.666C54.5827 91.666 58.3327 87.916 58.3327 83.3327H41.666C41.666 87.916 45.416 91.666 49.9993 91.666ZM74.9993 66.666V45.8327C74.9993 33.041 68.2077 22.3327 56.2493 19.4993V16.666C56.2493 13.2077 53.4577 10.416 49.9993 10.416C46.541 10.416 43.7493 13.2077 43.7493 16.666V19.4993C31.8327 22.3327 24.9993 32.9994 24.9993 45.8327V66.666L16.666 74.9994V79.166H83.3327V74.9994L74.9993 66.666ZM66.666 70.8327H33.3327V45.8327C33.3327 35.4994 39.6243 27.0827 49.9993 27.0827C60.3743 27.0827 66.666 35.4994 66.666 45.8327V70.8327Z" fill="white"/>
<path d="M49.9993 91.666C54.5827 91.666 58.3327 87.916 58.3327 83.3327H41.666C41.666 87.916 45.416 91.666 49.9993 91.666ZM74.9993 66.666V45.8327C74.9993 33.041 68.2077 22.3327 56.2493 19.4993V16.666C56.2493 13.2077 53.4577 10.416 49.9993 10.416C46.541 10.416 43.7493 13.2077 43.7493 16.666V19.4993C31.8327 22.3327 24.9993 32.9994 24.9993 45.8327V66.666L16.666 74.9994V79.166H83.3327V74.9994L74.9993 66.666ZM66.666 70.8327H33.3327V45.8327C33.3327 35.4994 39.6243 27.0827 49.9993 27.0827C60.3743 27.0827 66.666 35.4994 66.666 45.8327V70.8327Z" fill="url(#paint0_linear)"/>
<defs>
<linearGradient id="paint0_linear" x1="49.9993" y1="10.416" x2="49.9993" y2="91.666" gradientUnits="userSpaceOnUse">
<stop stop-color="white"/>
<stop offset="1" stop-color="white" stop-opacity="0"/>
</linearGradient>
</defs>
</svg>
