<svg width="100" height="100" viewBox="0 0 100 100" fill="none" xmlns="http://www.w3.org/2000/svg">
<path d="M27.875 25L22 30.875L41.0833 50L22 69.125L27.875 75L52.875 50L27.875 25Z" fill="white"/>
<path d="M27.875 25L22 30.875L41.0833 50L22 69.125L27.875 75L52.875 50L27.875 25Z" fill="url(#paint0_linear)"/>
<path d="M53.0039 25L47.1289 30.875L66.2122 50L47.1289 69.125L53.0039 75L78.0039 50L53.0039 25Z" fill="white"/>
<path d="M53.0039 25L47.1289 30.875L66.2122 50L47.1289 69.125L53.0039 75L78.0039 50L53.0039 25Z" fill="url(#paint1_linear)"/>
<defs>
<linearGradient id="paint0_linear" x1="37.4375" y1="25" x2="37.4375" y2="75" gradientUnits="userSpaceOnUse">
<stop stop-color="white"/>
<stop offset="1" stop-color="white" stop-opacity="0"/>
</linearGradient>
<linearGradient id="paint1_linear" x1="62.5664" y1="25" x2="62.5664" y2="75" gradientUnits="userSpaceOnUse">
<stop stop-color="white"/>
<stop offset="1" stop-color="white" stop-opacity="0"/>
</linearGradient>
</defs>
</svg>
