<svg width="100" height="100" viewBox="0 0 100 100" fill="none" xmlns="http://www.w3.org/2000/svg">
<path d="M74 50H58V56H74V50Z" fill="#4B48FD"/>
<path d="M74 62H58V68H74V62Z" fill="#4B48FD"/>
<path d="M82 30H62V18C62 13.6 58.4 10 54 10H46C41.6 10 38 13.6 38 18V30H18C13.6 30 10 33.6 10 38V82C10 86.4 13.6 90 18 90H82C86.4 90 90 86.4 90 82V38C90 33.6 86.4 30 82 30ZM46 30V18H54V30V38H46V30ZM82 82H18V38H38C38 42.4 41.6 46 46 46H54C58.4 46 62 42.4 62 38H82V82Z" fill="#BABABA"/>
<path d="M37.998 62C41.3118 62 43.998 59.3137 43.998 56C43.998 52.6863 41.3118 50 37.998 50C34.6843 50 31.998 52.6863 31.998 56C31.998 59.3137 34.6843 62 37.998 62Z" fill="#4B48FD"/>
<path d="M46.318 66.72C43.758 65.6 40.958 65 37.998 65C35.038 65 32.238 65.6 29.678 66.72C27.438 67.68 25.998 69.84 25.998 72.28V74H49.998V72.28C49.998 69.84 48.558 67.68 46.318 66.72Z" fill="#4B48FD"/>
</svg>
