<svg width="130" height="130" viewBox="0 0 130 130" fill="none" xmlns="http://www.w3.org/2000/svg">
<path fill-rule="evenodd" clip-rule="evenodd" d="M64.7551 58.5589C63.5571 58.5589 62.4188 58.0296 61.6447 57.1146C58.1595 52.9953 53.0035 45.4299 53 36.7777C53.0035 28.1255 58.163 20.5601 61.6482 16.4409C62.4223 15.5224 63.5642 15 64.7621 15C65.9635 15 67.0984 15.5294 67.876 16.4444C71.3577 20.5671 76.5207 28.129 76.5207 36.7777C76.5207 45.4334 71.3542 52.9988 67.8725 57.1181C67.0949 58.0366 65.9565 58.5589 64.7551 58.5589ZM65.0017 83.442C65.2524 78.3263 66.642 67.881 73.5398 61.0077C79.7929 54.7833 88.99 53.0578 94.4804 52.6086C95.7052 52.5053 96.9121 52.9438 97.7789 53.8065C98.6456 54.6656 99.0861 55.8706 98.9858 57.0862C98.5274 62.5585 96.7904 71.7133 90.5444 77.9306C84.3378 84.1051 75.2445 85.8519 69.7399 86.3225V110.119C69.7399 112.814 67.8596 114.999 65.1521 114.999C62.4409 114.999 60.5643 112.814 60.5643 110.119V86.3475C55.0954 85.9125 45.7694 84.2192 39.4518 77.927C33.2022 71.7133 31.4724 62.5478 31.014 57.0827C30.9137 55.8706 31.3578 54.6656 32.2245 53.8065C33.0912 52.9473 34.2945 52.5088 35.5194 52.6086C41.0133 53.0614 50.2104 54.7833 56.46 61.0077C63.3614 67.881 64.7545 78.3263 65.0017 83.442Z" fill="#4B48FD"/>
</svg>
