<svg width="100" height="100" viewBox="0 0 100 100" fill="none" xmlns="http://www.w3.org/2000/svg">
<path d="M57.5352 30.2807C51.4489 36.2282 50.2228 45.2666 50.0015 49.6933C49.7835 45.2666 48.5542 36.2282 42.4647 30.2807C36.9504 24.8946 28.8353 23.4047 23.9877 23.0129C22.9069 22.9265 21.8452 23.3059 21.0804 24.0494C20.3157 24.7928 19.9238 25.8355 20.0123 26.8843C20.4168 31.6133 21.9431 39.5443 27.4575 44.9211C33.0319 50.3658 41.2607 51.8311 46.0862 52.2074V72.7769C46.0862 75.109 47.7421 77 50.1343 77C52.5233 77 54.1823 75.109 54.1823 72.7769V52.1859C59.0394 51.7787 67.0629 50.2671 72.5393 44.9242C78.0505 39.5443 79.5831 31.6226 79.9876 26.8874C80.0761 25.8355 79.6874 24.7928 78.9227 24.0494C78.1579 23.3029 77.093 22.9234 76.0122 23.0129C71.1678 23.4016 63.0527 24.8946 57.5352 30.2807Z" fill="#D2D2D2"/>
</svg>
