<svg width="100" height="100" viewBox="0 0 100 100" fill="none" xmlns="http://www.w3.org/2000/svg">
<path fill-rule="evenodd" clip-rule="evenodd" d="M45.9847 72.058C42.7485 73.9351 38.9897 75.0101 34.9796 75.0101C22.8406 75.0101 13 65.165 13 53.0203C13 43.472 19.0837 35.3463 27.5839 32.3081C28.4426 20.9491 37.9266 12 49.5 12C61.0734 12 70.5574 20.9491 71.4161 32.3079C79.9165 35.3462 86 43.4718 86 53.0202C86 63.6467 78.4658 72.5127 68.4501 74.5632C67.0193 74.8561 65.5378 75.0099 64.0204 75.0099C59.9964 75.01 56.2254 73.9276 52.9815 72.0383V84.5016C52.9815 86.4337 51.4152 88 49.4831 88C47.551 88 45.9847 86.4337 45.9847 84.5016V72.058Z" fill="#D2D2D2"/>
</svg>
