<svg width="100" height="100" viewBox="0 0 100 100" fill="none" xmlns="http://www.w3.org/2000/svg">
<path d="M54.1667 12.5H45.8333V54.1667H54.1667V12.5ZM74.2917 21.5417L68.375 27.4583C74.9583 32.75 79.1667 40.875 79.1667 50C79.1667 66.125 66.125 79.1667 50 79.1667C33.875 79.1667 20.8333 66.125 20.8333 50C20.8333 40.875 25.0417 32.75 31.5833 27.4167L25.7083 21.5417C17.625 28.4167 12.5 38.5833 12.5 50C12.5 70.7083 29.2917 87.5 50 87.5C70.7083 87.5 87.5 70.7083 87.5 50C87.5 38.5833 82.375 28.4167 74.2917 21.5417Z" fill="white"/>
<path d="M54.1667 12.5H45.8333V54.1667H54.1667V12.5ZM74.2917 21.5417L68.375 27.4583C74.9583 32.75 79.1667 40.875 79.1667 50C79.1667 66.125 66.125 79.1667 50 79.1667C33.875 79.1667 20.8333 66.125 20.8333 50C20.8333 40.875 25.0417 32.75 31.5833 27.4167L25.7083 21.5417C17.625 28.4167 12.5 38.5833 12.5 50C12.5 70.7083 29.2917 87.5 50 87.5C70.7083 87.5 87.5 70.7083 87.5 50C87.5 38.5833 82.375 28.4167 74.2917 21.5417Z" fill="url(#paint0_linear_4472:3738)"/>
<defs>
<linearGradient id="paint0_linear_4472:3738" x1="50" y1="12.5" x2="50" y2="87.5" gradientUnits="userSpaceOnUse">
<stop stop-color="white"/>
<stop offset="1" stop-color="white" stop-opacity="0"/>
</linearGradient>
</defs>
</svg>
