<svg width="100" height="100" viewBox="0 0 100 100" fill="none" xmlns="http://www.w3.org/2000/svg">
<path d="M50.0007 8.33398C27.0007 8.33398 8.33398 27.0007 8.33398 50.0007C8.33398 73.0007 27.0007 91.6673 50.0007 91.6673C73.0007 91.6673 91.6673 73.0007 91.6673 50.0007C91.6673 27.0007 73.0007 8.33398 50.0007 8.33398ZM50.0007 83.334C31.6257 83.334 16.6673 68.3757 16.6673 50.0007C16.6673 31.6257 31.6257 16.6673 50.0007 16.6673C68.3757 16.6673 83.334 31.6257 83.334 50.0007C83.334 68.3757 68.3757 83.334 50.0007 83.334ZM53.709 46.2507C46.2923 43.7923 42.709 42.2507 42.709 38.334C42.709 34.084 47.334 32.5423 50.2507 32.5423C55.709 32.5423 57.709 36.6673 58.1673 38.1257L64.7507 35.334C64.1257 33.5007 61.334 27.3757 53.6673 26.0423V20.834H46.3757V26.084C35.5423 28.4173 35.459 37.959 35.459 38.4173C35.459 47.8757 44.834 50.5423 49.4173 52.209C56.0007 54.5423 58.9173 56.6673 58.9173 60.6673C58.9173 65.3757 54.5423 67.3757 50.6673 67.3757C43.084 67.3757 40.9173 59.584 40.6673 58.6673L33.7507 61.459C36.3757 70.584 43.2507 73.0423 46.334 73.7923V79.1673H53.6257V74.0007C55.7923 73.6257 66.209 71.5423 66.209 60.584C66.2507 54.7923 63.709 49.709 53.709 46.2507Z" fill="white"/>
<path d="M50.0007 8.33398C27.0007 8.33398 8.33398 27.0007 8.33398 50.0007C8.33398 73.0007 27.0007 91.6673 50.0007 91.6673C73.0007 91.6673 91.6673 73.0007 91.6673 50.0007C91.6673 27.0007 73.0007 8.33398 50.0007 8.33398ZM50.0007 83.334C31.6257 83.334 16.6673 68.3757 16.6673 50.0007C16.6673 31.6257 31.6257 16.6673 50.0007 16.6673C68.3757 16.6673 83.334 31.6257 83.334 50.0007C83.334 68.3757 68.3757 83.334 50.0007 83.334ZM53.709 46.2507C46.2923 43.7923 42.709 42.2507 42.709 38.334C42.709 34.084 47.334 32.5423 50.2507 32.5423C55.709 32.5423 57.709 36.6673 58.1673 38.1257L64.7507 35.334C64.1257 33.5007 61.334 27.3757 53.6673 26.0423V20.834H46.3757V26.084C35.5423 28.4173 35.459 37.959 35.459 38.4173C35.459 47.8757 44.834 50.5423 49.4173 52.209C56.0007 54.5423 58.9173 56.6673 58.9173 60.6673C58.9173 65.3757 54.5423 67.3757 50.6673 67.3757C43.084 67.3757 40.9173 59.584 40.6673 58.6673L33.7507 61.459C36.3757 70.584 43.2507 73.0423 46.334 73.7923V79.1673H53.6257V74.0007C55.7923 73.6257 66.209 71.5423 66.209 60.584C66.2507 54.7923 63.709 49.709 53.709 46.2507Z" fill="url(#paint0_linear)"/>
<defs>
<linearGradient id="paint0_linear" x1="50.0007" y1="8.33398" x2="50.0007" y2="91.6673" gradientUnits="userSpaceOnUse">
<stop stop-color="white"/>
<stop offset="1" stop-color="white" stop-opacity="0"/>
</linearGradient>
</defs>
</svg>
