<svg width="100" height="100" viewBox="0 0 100 100" fill="none" xmlns="http://www.w3.org/2000/svg">
<path d="M58.1595 38.3333H54.7196V31.6667C54.7196 22.4667 47.014 15 37.5197 15C28.0254 15 20.3199 22.4667 20.3199 31.6667V38.3333H16.8799C13.096 38.3333 10 41.3333 10 45V78.3333C10 82 13.096 85 16.8799 85H58.1595C61.9435 85 65.0395 82 65.0395 78.3333V45C65.0395 41.3333 61.9435 38.3333 58.1595 38.3333ZM27.1998 31.6667C27.1998 26.1333 31.8094 21.6667 37.5197 21.6667C43.2301 21.6667 47.8396 26.1333 47.8396 31.6667V38.3333H27.1998V31.6667ZM58.1595 78.3333H16.8799V45H58.1595V78.3333ZM37.5197 68.3333C41.3037 68.3333 44.3997 65.3333 44.3997 61.6667C44.3997 58 41.3037 55 37.5197 55C33.7358 55 30.6398 58 30.6398 61.6667C30.6398 65.3333 33.7358 68.3333 37.5197 68.3333Z" fill="#BABABA"/>
<path d="M67.8563 66.0325H64.2798V70.1992V72.6992H61.7798H54.7247H52.2247V70.1992V66.0325H51.1972H48.6972V63.5325V56.8659V54.3659H51.1972H67.8563C70.0645 50.3595 74.4535 47.6992 79.4174 47.6992C86.5009 47.6992 92.5 53.1703 92.5 60.1992C92.5 67.2281 86.5009 72.6992 79.4174 72.6992C74.4535 72.6992 70.0645 70.039 67.8563 66.0325ZM79.4174 61.0325C80.1121 61.0325 80.4449 60.5203 80.4449 60.1992C80.4449 59.8781 80.1121 59.3659 79.4174 59.3659C78.7227 59.3659 78.3899 59.8781 78.3899 60.1992C78.3899 60.5203 78.7227 61.0325 79.4174 61.0325Z" fill="#4B48FD"/>
<path d="M67.8563 66.0325H64.2798V70.1992V72.6992H61.7798H54.7247H52.2247V70.1992V66.0325H51.1972H48.6972V63.5325V56.8659V54.3659H51.1972H67.8563C70.0645 50.3595 74.4535 47.6992 79.4174 47.6992C86.5009 47.6992 92.5 53.1703 92.5 60.1992C92.5 67.2281 86.5009 72.6992 79.4174 72.6992C74.4535 72.6992 70.0645 70.039 67.8563 66.0325ZM79.4174 61.0325C80.1121 61.0325 80.4449 60.5203 80.4449 60.1992C80.4449 59.8781 80.1121 59.3659 79.4174 59.3659C78.7227 59.3659 78.3899 59.8781 78.3899 60.1992C78.3899 60.5203 78.7227 61.0325 79.4174 61.0325Z" stroke="white" stroke-width="5"/>
<path d="M67.8563 66.0325H64.2798V70.1992V72.6992H61.7798H54.7247H52.2247V70.1992V66.0325H51.1972H48.6972V63.5325V56.8659V54.3659H51.1972H67.8563C70.0645 50.3595 74.4535 47.6992 79.4174 47.6992C86.5009 47.6992 92.5 53.1703 92.5 60.1992C92.5 67.2281 86.5009 72.6992 79.4174 72.6992C74.4535 72.6992 70.0645 70.039 67.8563 66.0325ZM79.4174 61.0325C80.1121 61.0325 80.4449 60.5203 80.4449 60.1992C80.4449 59.8781 80.1121 59.3659 79.4174 59.3659C78.7227 59.3659 78.3899 59.8781 78.3899 60.1992C78.3899 60.5203 78.7227 61.0325 79.4174 61.0325Z" stroke="url(#paint0_linear)" stroke-width="5"/>
<defs>
<linearGradient id="paint0_linear" x1="70.5986" y1="50.1992" x2="70.5986" y2="70.1992" gradientUnits="userSpaceOnUse">
<stop stop-color="white"/>
<stop offset="1" stop-color="white" stop-opacity="0"/>
</linearGradient>
</defs>
</svg>
