<svg width="100" height="100" viewBox="0 0 100 100" fill="none" xmlns="http://www.w3.org/2000/svg">
<path d="M21.3846 27.8H28.7691V38.9H65.6919V27.8H73.0765V46.3H80.461V27.8C80.461 23.73 77.138 20.4 73.0765 20.4H57.6427C56.092 16.108 52.0305 13 47.2305 13C42.4305 13 38.369 16.108 36.8183 20.4H21.3846C17.3231 20.4 14 23.73 14 27.8V79.6C14 83.67 17.3231 87 21.3846 87H43.5382V79.6H21.3846V27.8ZM47.2305 20.4C49.2613 20.4 50.9228 22.065 50.9228 24.1C50.9228 26.135 49.2613 27.8 47.2305 27.8C45.1998 27.8 43.5382 26.135 43.5382 24.1C43.5382 22.065 45.1998 20.4 47.2305 20.4Z" fill="#BABABA"/>
<path d="M80.4618 51.8516L60.1912 72.2016L49.0775 61.1016L43.5391 66.6516L60.1912 83.3016L86.0003 57.4016L80.4618 51.8516Z" fill="#4B48FD"/>
</svg>
