<svg width="100" height="100" viewBox="0 0 100 100" fill="none" xmlns="http://www.w3.org/2000/svg">
<path d="M50.0007 8.33398C27.0007 8.33398 8.33398 27.0007 8.33398 50.0007C8.33398 73.0007 27.0007 91.6673 50.0007 91.6673C73.0007 91.6673 91.6673 73.0007 91.6673 50.0007C91.6673 27.0007 73.0007 8.33398 50.0007 8.33398ZM50.0007 83.334C31.6257 83.334 16.6673 68.3757 16.6673 50.0007C16.6673 31.6257 31.6257 16.6673 50.0007 16.6673C68.3757 16.6673 83.334 31.6257 83.334 50.0007C83.334 68.3757 68.3757 83.334 50.0007 83.334Z" fill="white"/>
<path d="M50.0007 8.33398C27.0007 8.33398 8.33398 27.0007 8.33398 50.0007C8.33398 73.0007 27.0007 91.6673 50.0007 91.6673C73.0007 91.6673 91.6673 73.0007 91.6673 50.0007C91.6673 27.0007 73.0007 8.33398 50.0007 8.33398ZM50.0007 83.334C31.6257 83.334 16.6673 68.3757 16.6673 50.0007C16.6673 31.6257 31.6257 16.6673 50.0007 16.6673C68.3757 16.6673 83.334 31.6257 83.334 50.0007C83.334 68.3757 68.3757 83.334 50.0007 83.334Z" fill="url(#paint0_linear)"/>
<path d="M70.8342 41.6673H51.7092L54.1259 27.459V26.6257C54.0842 25.5423 53.6259 24.5007 52.8759 23.709L50.0009 20.834L30.8342 41.6673C29.7092 42.7507 29.0842 44.2507 29.1676 45.834V66.6673C29.1676 71.2506 32.9176 75.0006 37.5009 75.0006H60.4176C62.7509 75.1256 64.9176 73.7923 65.8342 71.6673L74.5842 51.2507C74.9176 50.6257 75.0842 49.8757 75.0009 49.1673V45.834C75.0009 43.5423 73.1259 41.6673 70.8342 41.6673Z" fill="white"/>
<path d="M70.8342 41.6673H51.7092L54.1259 27.459V26.6257C54.0842 25.5423 53.6259 24.5007 52.8759 23.709L50.0009 20.834L30.8342 41.6673C29.7092 42.7507 29.0842 44.2507 29.1676 45.834V66.6673C29.1676 71.2506 32.9176 75.0006 37.5009 75.0006H60.4176C62.7509 75.1256 64.9176 73.7923 65.8342 71.6673L74.5842 51.2507C74.9176 50.6257 75.0842 49.8757 75.0009 49.1673V45.834C75.0009 43.5423 73.1259 41.6673 70.8342 41.6673Z" fill="url(#paint1_linear)"/>
<defs>
<linearGradient id="paint0_linear" x1="50.0007" y1="8.33398" x2="50.0007" y2="91.6673" gradientUnits="userSpaceOnUse">
<stop stop-color="white"/>
<stop offset="1" stop-color="white" stop-opacity="0"/>
</linearGradient>
<linearGradient id="paint1_linear" x1="52.0911" y1="20.834" x2="52.0911" y2="75.0087" gradientUnits="userSpaceOnUse">
<stop stop-color="white"/>
<stop offset="1" stop-color="white" stop-opacity="0"/>
</linearGradient>
</defs>
</svg>
