<svg width="100" height="100" viewBox="0 0 100 100" fill="none" xmlns="http://www.w3.org/2000/svg">
<path d="M80.9542 54.084C81.1209 52.7507 81.2459 51.4173 81.2459 50.0007C81.2459 48.584 81.1209 47.2507 80.9542 45.9173L89.7459 39.0423C90.5376 38.4173 90.7459 37.2923 90.2459 36.3757L81.9126 21.959C81.5376 21.2923 80.8292 20.9173 80.0792 20.9173C79.8292 20.9173 79.5792 20.959 79.3709 21.0423L68.9959 25.209C66.8292 23.5423 64.4959 22.1673 61.9542 21.1257L60.3709 10.084C60.2459 9.08398 59.3709 8.33398 58.3292 8.33398H41.6626C40.6209 8.33398 39.7459 9.08398 39.6209 10.084L38.0376 21.1257C35.4959 22.1673 33.1626 23.584 30.9959 25.209L20.6209 21.0423C20.3709 20.959 20.1209 20.9173 19.8709 20.9173C19.1626 20.9173 18.4542 21.2923 18.0792 21.959L9.74591 36.3757C9.20425 37.2923 9.45425 38.4173 10.2459 39.0423L19.0376 45.9173C18.8709 47.2507 18.7459 48.6257 18.7459 50.0007C18.7459 51.3757 18.8709 52.7507 19.0376 54.084L10.2459 60.959C9.45425 61.584 9.24591 62.709 9.74591 63.6257L18.0792 78.0423C18.4542 78.709 19.1626 79.084 19.9126 79.084C20.1626 79.084 20.4126 79.0423 20.6209 78.959L30.9959 74.7923C33.1626 76.459 35.4959 77.834 38.0376 78.8757L39.6209 89.9173C39.7459 90.9173 40.6209 91.6673 41.6626 91.6673H58.3292C59.3709 91.6673 60.2459 90.9173 60.3709 89.9173L61.9542 78.8757C64.4959 77.834 66.8292 76.4173 68.9959 74.7923L79.3709 78.959C79.6209 79.0423 79.8709 79.084 80.1209 79.084C80.8292 79.084 81.5376 78.709 81.9126 78.0423L90.2459 63.6257C90.7459 62.709 90.5376 61.584 89.7459 60.959L80.9542 54.084ZM72.7043 46.959C72.8709 48.2507 72.9126 49.1257 72.9126 50.0007C72.9126 50.8757 72.8293 51.7923 72.7043 53.0423L72.1209 57.7507L75.8292 60.6673L80.3292 64.1673L77.4126 69.209L72.1209 67.084L67.7876 65.334L64.0376 68.1673C62.2459 69.5007 60.5376 70.5007 58.8292 71.209L54.4126 73.0007L53.7459 77.709L52.9126 83.334H47.0792L46.2876 77.709L45.6209 73.0007L41.2042 71.209C39.4126 70.459 37.7459 69.5007 36.0792 68.2507L32.2876 65.334L27.8709 67.1257L22.5792 69.2507L19.6626 64.209L24.1626 60.709L27.8709 57.7923L27.2876 53.084C27.1626 51.7923 27.0792 50.834 27.0792 50.0007C27.0792 49.1673 27.1626 48.209 27.2876 46.959L27.8709 42.2507L24.1626 39.334L19.6626 35.834L22.5792 30.7923L27.8709 32.9173L32.2042 34.6673L35.9542 31.834C37.7459 30.5007 39.4542 29.5007 41.1626 28.7923L45.5792 27.0007L46.2459 22.2923L47.0792 16.6673H52.8709L53.6626 22.2923L54.3292 27.0007L58.7459 28.7923C60.5376 29.5423 62.2042 30.5007 63.8709 31.7507L67.6626 34.6673L72.0792 32.8757L77.3709 30.7507L80.2876 35.7923L75.8292 39.334L72.1209 42.2507L72.7043 46.959ZM49.9959 33.334C40.7876 33.334 33.3292 40.7923 33.3292 50.0007C33.3292 59.209 40.7876 66.6673 49.9959 66.6673C59.2042 66.6673 66.6626 59.209 66.6626 50.0007C66.6626 40.7923 59.2042 33.334 49.9959 33.334ZM49.9959 58.334C45.4126 58.334 41.6626 54.584 41.6626 50.0007C41.6626 45.4173 45.4126 41.6673 49.9959 41.6673C54.5792 41.6673 58.3292 45.4173 58.3292 50.0007C58.3292 54.584 54.5792 58.334 49.9959 58.334Z" fill="white"/>
<path d="M80.9542 54.084C81.1209 52.7507 81.2459 51.4173 81.2459 50.0007C81.2459 48.584 81.1209 47.2507 80.9542 45.9173L89.7459 39.0423C90.5376 38.4173 90.7459 37.2923 90.2459 36.3757L81.9126 21.959C81.5376 21.2923 80.8292 20.9173 80.0792 20.9173C79.8292 20.9173 79.5792 20.959 79.3709 21.0423L68.9959 25.209C66.8292 23.5423 64.4959 22.1673 61.9542 21.1257L60.3709 10.084C60.2459 9.08398 59.3709 8.33398 58.3292 8.33398H41.6626C40.6209 8.33398 39.7459 9.08398 39.6209 10.084L38.0376 21.1257C35.4959 22.1673 33.1626 23.584 30.9959 25.209L20.6209 21.0423C20.3709 20.959 20.1209 20.9173 19.8709 20.9173C19.1626 20.9173 18.4542 21.2923 18.0792 21.959L9.74591 36.3757C9.20425 37.2923 9.45425 38.4173 10.2459 39.0423L19.0376 45.9173C18.8709 47.2507 18.7459 48.6257 18.7459 50.0007C18.7459 51.3757 18.8709 52.7507 19.0376 54.084L10.2459 60.959C9.45425 61.584 9.24591 62.709 9.74591 63.6257L18.0792 78.0423C18.4542 78.709 19.1626 79.084 19.9126 79.084C20.1626 79.084 20.4126 79.0423 20.6209 78.959L30.9959 74.7923C33.1626 76.459 35.4959 77.834 38.0376 78.8757L39.6209 89.9173C39.7459 90.9173 40.6209 91.6673 41.6626 91.6673H58.3292C59.3709 91.6673 60.2459 90.9173 60.3709 89.9173L61.9542 78.8757C64.4959 77.834 66.8292 76.4173 68.9959 74.7923L79.3709 78.959C79.6209 79.0423 79.8709 79.084 80.1209 79.084C80.8292 79.084 81.5376 78.709 81.9126 78.0423L90.2459 63.6257C90.7459 62.709 90.5376 61.584 89.7459 60.959L80.9542 54.084ZM72.7043 46.959C72.8709 48.2507 72.9126 49.1257 72.9126 50.0007C72.9126 50.8757 72.8293 51.7923 72.7043 53.0423L72.1209 57.7507L75.8292 60.6673L80.3292 64.1673L77.4126 69.209L72.1209 67.084L67.7876 65.334L64.0376 68.1673C62.2459 69.5007 60.5376 70.5007 58.8292 71.209L54.4126 73.0007L53.7459 77.709L52.9126 83.334H47.0792L46.2876 77.709L45.6209 73.0007L41.2042 71.209C39.4126 70.459 37.7459 69.5007 36.0792 68.2507L32.2876 65.334L27.8709 67.1257L22.5792 69.2507L19.6626 64.209L24.1626 60.709L27.8709 57.7923L27.2876 53.084C27.1626 51.7923 27.0792 50.834 27.0792 50.0007C27.0792 49.1673 27.1626 48.209 27.2876 46.959L27.8709 42.2507L24.1626 39.334L19.6626 35.834L22.5792 30.7923L27.8709 32.9173L32.2042 34.6673L35.9542 31.834C37.7459 30.5007 39.4542 29.5007 41.1626 28.7923L45.5792 27.0007L46.2459 22.2923L47.0792 16.6673H52.8709L53.6626 22.2923L54.3292 27.0007L58.7459 28.7923C60.5376 29.5423 62.2042 30.5007 63.8709 31.7507L67.6626 34.6673L72.0792 32.8757L77.3709 30.7507L80.2876 35.7923L75.8292 39.334L72.1209 42.2507L72.7043 46.959ZM49.9959 33.334C40.7876 33.334 33.3292 40.7923 33.3292 50.0007C33.3292 59.209 40.7876 66.6673 49.9959 66.6673C59.2042 66.6673 66.6626 59.209 66.6626 50.0007C66.6626 40.7923 59.2042 33.334 49.9959 33.334ZM49.9959 58.334C45.4126 58.334 41.6626 54.584 41.6626 50.0007C41.6626 45.4173 45.4126 41.6673 49.9959 41.6673C54.5792 41.6673 58.3292 45.4173 58.3292 50.0007C58.3292 54.584 54.5792 58.334 49.9959 58.334Z" fill="url(#paint0_linear)"/>
<defs>
<linearGradient id="paint0_linear" x1="49.9867" y1="8.33398" x2="49.9867" y2="91.6673" gradientUnits="userSpaceOnUse">
<stop stop-color="white"/>
<stop offset="1" stop-color="white" stop-opacity="0"/>
</linearGradient>
</defs>
</svg>
