<svg width="100" height="100" viewBox="0 0 100 100" fill="none" xmlns="http://www.w3.org/2000/svg">
<path d="M64.5833 58.3333H61.2917L60.125 57.2083C64.2083 52.4583 66.6667 46.2917 66.6667 39.5833C66.6667 24.625 54.5417 12.5 39.5833 12.5C24.625 12.5 12.5 24.625 12.5 39.5833C12.5 54.5417 24.625 66.6667 39.5833 66.6667C46.2917 66.6667 52.4583 64.2083 57.2083 60.125L58.3333 61.2917V64.5833L79.1667 85.375L85.375 79.1667L64.5833 58.3333ZM39.5833 58.3333C29.2083 58.3333 20.8333 49.9583 20.8333 39.5833C20.8333 29.2083 29.2083 20.8333 39.5833 20.8333C49.9583 20.8333 58.3333 29.2083 58.3333 39.5833C58.3333 49.9583 49.9583 58.3333 39.5833 58.3333Z" fill="white"/>
<path d="M64.5833 58.3333H61.2917L60.125 57.2083C64.2083 52.4583 66.6667 46.2917 66.6667 39.5833C66.6667 24.625 54.5417 12.5 39.5833 12.5C24.625 12.5 12.5 24.625 12.5 39.5833C12.5 54.5417 24.625 66.6667 39.5833 66.6667C46.2917 66.6667 52.4583 64.2083 57.2083 60.125L58.3333 61.2917V64.5833L79.1667 85.375L85.375 79.1667L64.5833 58.3333ZM39.5833 58.3333C29.2083 58.3333 20.8333 49.9583 20.8333 39.5833C20.8333 29.2083 29.2083 20.8333 39.5833 20.8333C49.9583 20.8333 58.3333 29.2083 58.3333 39.5833C58.3333 49.9583 49.9583 58.3333 39.5833 58.3333Z" fill="url(#paint0_linear)"/>
<defs>
<linearGradient id="paint0_linear" x1="48.9375" y1="12.5" x2="48.9375" y2="85.375" gradientUnits="userSpaceOnUse">
<stop stop-color="white"/>
<stop offset="1" stop-color="white" stop-opacity="0"/>
</linearGradient>
</defs>
</svg>
