<svg width="100" height="100" viewBox="0 0 100 100" fill="none" xmlns="http://www.w3.org/2000/svg">
<path d="M49.9993 24.9993C65.791 24.9993 79.8743 33.8744 86.7493 47.916C79.8743 61.9577 65.791 70.8327 49.9993 70.8327C34.2077 70.8327 20.1243 61.9577 13.2493 47.916C20.1243 33.8744 34.2077 24.9993 49.9993 24.9993ZM49.9993 16.666C29.166 16.666 11.3743 29.6244 4.16602 47.916C11.3743 66.2077 29.166 79.166 49.9993 79.166C70.8327 79.166 88.6243 66.2077 95.8327 47.916C88.6243 29.6244 70.8327 16.666 49.9993 16.666ZM49.9993 37.4994C55.7493 37.4994 60.416 42.166 60.416 47.916C60.416 53.666 55.7493 58.3327 49.9993 58.3327C44.2493 58.3327 39.5827 53.666 39.5827 47.916C39.5827 42.166 44.2493 37.4994 49.9993 37.4994ZM49.9993 29.166C39.666 29.166 31.2493 37.5827 31.2493 47.916C31.2493 58.2494 39.666 66.666 49.9993 66.666C60.3327 66.666 68.7493 58.2494 68.7493 47.916C68.7493 37.5827 60.3327 29.166 49.9993 29.166Z" fill="white"/>
<path d="M49.9993 24.9993C65.791 24.9993 79.8743 33.8744 86.7493 47.916C79.8743 61.9577 65.791 70.8327 49.9993 70.8327C34.2077 70.8327 20.1243 61.9577 13.2493 47.916C20.1243 33.8744 34.2077 24.9993 49.9993 24.9993ZM49.9993 16.666C29.166 16.666 11.3743 29.6244 4.16602 47.916C11.3743 66.2077 29.166 79.166 49.9993 79.166C70.8327 79.166 88.6243 66.2077 95.8327 47.916C88.6243 29.6244 70.8327 16.666 49.9993 16.666ZM49.9993 37.4994C55.7493 37.4994 60.416 42.166 60.416 47.916C60.416 53.666 55.7493 58.3327 49.9993 58.3327C44.2493 58.3327 39.5827 53.666 39.5827 47.916C39.5827 42.166 44.2493 37.4994 49.9993 37.4994ZM49.9993 29.166C39.666 29.166 31.2493 37.5827 31.2493 47.916C31.2493 58.2494 39.666 66.666 49.9993 66.666C60.3327 66.666 68.7493 58.2494 68.7493 47.916C68.7493 37.5827 60.3327 29.166 49.9993 29.166Z" fill="url(#paint0_linear)"/>
<defs>
<linearGradient id="paint0_linear" x1="49.9993" y1="16.666" x2="49.9993" y2="79.166" gradientUnits="userSpaceOnUse">
<stop stop-color="white"/>
<stop offset="1" stop-color="white" stop-opacity="0"/>
</linearGradient>
</defs>
</svg>
