<svg width="100" height="100" viewBox="0 0 100 100" fill="none" xmlns="http://www.w3.org/2000/svg">
<path d="M49.9993 24.9967C65.791 24.9967 79.8743 33.8717 86.7493 47.9134C84.291 52.9967 80.8327 57.3717 76.7077 60.9134L82.5827 66.7884C88.3743 61.6634 92.9577 55.2467 95.8327 47.9134C88.6243 29.6217 70.8327 16.6634 49.9993 16.6634C44.7077 16.6634 39.6243 17.4967 34.8327 19.0384L41.7077 25.9134C44.416 25.3717 47.166 24.9967 49.9993 24.9967ZM45.541 29.7467L54.166 38.3717C56.541 39.4134 58.4577 41.3301 59.4993 43.7051L68.1243 52.3301C68.4577 50.9134 68.7077 49.4134 68.7077 47.8717C68.7493 37.5384 60.3327 29.1634 49.9993 29.1634C48.4577 29.1634 46.9993 29.3717 45.541 29.7467ZM8.37435 16.1217L19.541 27.2884C12.7493 32.6217 7.37435 39.7051 4.16602 47.9134C11.3743 66.2051 29.166 79.1634 49.9993 79.1634C56.3327 79.1634 62.416 77.9551 67.9993 75.7467L82.2493 89.9967L88.1243 84.1217L14.2493 10.2051L8.37435 16.1217ZM39.6243 47.3717L50.4993 58.2467C50.3327 58.2884 50.166 58.3301 49.9993 58.3301C44.2493 58.3301 39.5827 53.6634 39.5827 47.9134C39.5827 47.7051 39.6243 47.5801 39.6243 47.3717ZM25.4577 33.2051L32.7493 40.4967C31.791 42.7884 31.2493 45.2884 31.2493 47.9134C31.2493 58.2467 39.666 66.6634 49.9993 66.6634C52.6243 66.6634 55.1243 66.1217 57.3743 65.1634L61.4577 69.2467C57.791 70.2467 53.9577 70.8301 49.9993 70.8301C34.2077 70.8301 20.1243 61.9551 13.2493 47.9134C16.166 41.9551 20.416 37.0384 25.4577 33.2051Z" fill="white"/>
<path d="M49.9993 24.9967C65.791 24.9967 79.8743 33.8717 86.7493 47.9134C84.291 52.9967 80.8327 57.3717 76.7077 60.9134L82.5827 66.7884C88.3743 61.6634 92.9577 55.2467 95.8327 47.9134C88.6243 29.6217 70.8327 16.6634 49.9993 16.6634C44.7077 16.6634 39.6243 17.4967 34.8327 19.0384L41.7077 25.9134C44.416 25.3717 47.166 24.9967 49.9993 24.9967ZM45.541 29.7467L54.166 38.3717C56.541 39.4134 58.4577 41.3301 59.4993 43.7051L68.1243 52.3301C68.4577 50.9134 68.7077 49.4134 68.7077 47.8717C68.7493 37.5384 60.3327 29.1634 49.9993 29.1634C48.4577 29.1634 46.9993 29.3717 45.541 29.7467ZM8.37435 16.1217L19.541 27.2884C12.7493 32.6217 7.37435 39.7051 4.16602 47.9134C11.3743 66.2051 29.166 79.1634 49.9993 79.1634C56.3327 79.1634 62.416 77.9551 67.9993 75.7467L82.2493 89.9967L88.1243 84.1217L14.2493 10.2051L8.37435 16.1217ZM39.6243 47.3717L50.4993 58.2467C50.3327 58.2884 50.166 58.3301 49.9993 58.3301C44.2493 58.3301 39.5827 53.6634 39.5827 47.9134C39.5827 47.7051 39.6243 47.5801 39.6243 47.3717ZM25.4577 33.2051L32.7493 40.4967C31.791 42.7884 31.2493 45.2884 31.2493 47.9134C31.2493 58.2467 39.666 66.6634 49.9993 66.6634C52.6243 66.6634 55.1243 66.1217 57.3743 65.1634L61.4577 69.2467C57.791 70.2467 53.9577 70.8301 49.9993 70.8301C34.2077 70.8301 20.1243 61.9551 13.2493 47.9134C16.166 41.9551 20.416 37.0384 25.4577 33.2051Z" fill="url(#paint0_linear)"/>
<defs>
<linearGradient id="paint0_linear" x1="49.9993" y1="10.2051" x2="49.9993" y2="89.9967" gradientUnits="userSpaceOnUse">
<stop stop-color="white"/>
<stop offset="1" stop-color="white" stop-opacity="0"/>
</linearGradient>
</defs>
</svg>
