<svg width="53" height="30" viewBox="0 0 53 30" fill="none" xmlns="http://www.w3.org/2000/svg">
<path d="M16.6146 2.17969C23.6786 2.17969 29.4046 7.89494 29.4046 14.9446C29.4046 21.9942 23.6782 27.709 16.6146 27.709C9.5511 27.709 3.82422 21.9942 3.82422 14.9446C3.82422 7.89494 9.55066 2.17969 16.6146 2.17969ZM37.04 2.92742C40.572 2.92742 43.4353 8.30714 43.4353 14.9446H43.4357C43.4357 21.5803 40.5725 26.9617 37.0405 26.9617C33.5085 26.9617 30.6453 21.5803 30.6453 14.9446C30.6453 8.30886 33.508 2.92742 37.04 2.92742ZM46.9255 4.1791C48.1675 4.1791 49.1747 8.99888 49.1747 14.9446C49.1747 20.8885 48.1679 25.71 46.9255 25.71C45.6832 25.71 44.6767 20.8898 44.6767 14.9446C44.6767 8.99931 45.6836 4.1791 46.9255 4.1791Z" fill="black"/>
</svg>
