<svg width="36" height="36" viewBox="0 0 36 36" fill="none" xmlns="http://www.w3.org/2000/svg">
<circle cx="18" cy="18" r="15" fill="#4B96CA"/>
<path d="M12.9534 12.0925C12.9534 12.9722 12.2211 13.685 11.3173 13.685C10.4135 13.685 9.68116 12.9722 9.68116 12.0925C9.68116 11.2134 10.4135 10.5 11.3173 10.5C12.2211 10.5 12.9534 11.2134 12.9534 12.0925ZM12.9666 14.959H9.66797V25.1512H12.9666V14.959ZM18.2325 14.959H14.955V25.1512H18.2331V19.8009C18.2331 16.8261 22.2106 16.5828 22.2106 19.8009V25.1512H25.5013V18.6976C25.5013 13.678 19.6153 13.8608 18.2325 16.3318V14.959Z" fill="white"/>
<path d="M12.9534 12.0925C12.9534 12.9722 12.2211 13.685 11.3173 13.685C10.4135 13.685 9.68116 12.9722 9.68116 12.0925C9.68116 11.2134 10.4135 10.5 11.3173 10.5C12.2211 10.5 12.9534 11.2134 12.9534 12.0925ZM12.9666 14.959H9.66797V25.1512H12.9666V14.959ZM18.2325 14.959H14.955V25.1512H18.2331V19.8009C18.2331 16.8261 22.2106 16.5828 22.2106 19.8009V25.1512H25.5013V18.6976C25.5013 13.678 19.6153 13.8608 18.2325 16.3318V14.959Z" fill="url(#paint0_linear)"/>
</svg>
