<?xml version="1.0" encoding="utf-8"?>
<!-- Generator: Adobe Illustrator 25.4.1, SVG Export Plug-In . SVG Version: 6.00 Build 0)  -->
<svg version="1.1" id="Layer_1" xmlns="http://www.w3.org/2000/svg" xmlns:xlink="http://www.w3.org/1999/xlink" x="0px" y="0px"
	 viewBox="0 0 90 40" style="enable-background:new 0 0 90 40;" xml:space="preserve">
<style type="text/css">
	.st0{fill:#373838;}
	.st1{fill:#6C6CF2;}
	.st2{fill:url(#SVGID_1_);}
	.st3{fill:#EF7D22;}
	.st4{fill:url(#SVGID_00000083805052808753953370000002838007332281018789_);}
	.st5{fill:#E750AE;}
	.st6{fill:#FFFFFF;}
	.st7{fill:url(#SVGID_00000035511990912468648300000009807440581690885290_);}
	.st8{fill:url(#SVGID_00000022561223434814413700000017944600911447510190_);}
	.st9{fill:url(#SVGID_00000141422193446709021190000002259696360549831612_);}
	.st10{fill:url(#SVGID_00000113337842564752491220000012449590856263377810_);}
	.st11{fill:url(#SVGID_00000156571527372146241520000016914056127932438966_);}
	.st12{fill:url(#SVGID_00000015332884979528009600000014434503748981339794_);}
</style>
<circle class="st6" cx="9.2" cy="30.8" r="4.4"/>
<linearGradient id="SVGID_1_" gradientUnits="userSpaceOnUse" x1="6.62" y1="9.1877" x2="29.8926" y2="9.1877">
	<stop  offset="0" style="stop-color:#FFFFFF;stop-opacity:0"/>
	<stop  offset="0.5" style="stop-color:#FFFFFF"/>
	<stop  offset="1" style="stop-color:#FFFFFF"/>
</linearGradient>
<path class="st2" d="M25.5,4.8c-1,0-1.9,0.3-2.6,0.9c-1.8,0.8-3.7,1.2-5.6,1.2c-1.8,0-3.6-0.3-5.2-1H6.6v6.7H12c1.7-0.7,3.4-1,5.2-1
	c1.9,0,3.7,0.3,5.5,1.1v0c0.8,0.6,1.7,1,2.8,1c2.4,0,4.4-2,4.4-4.4S27.9,4.8,25.5,4.8z"/>
<circle class="st6" cx="9.2" cy="9.2" r="4.4"/>
<linearGradient id="SVGID_00000111176339536631346870000015746904721707272869_" gradientUnits="userSpaceOnUse" x1="9.2295" y1="19.8568" x2="24.9452" y2="19.8568">
	<stop  offset="0" style="stop-color:#FFFFFF;stop-opacity:0"/>
	<stop  offset="0.5" style="stop-color:#FFFFFF"/>
	<stop  offset="1" style="stop-color:#FFFFFF"/>
</linearGradient>
<path style="fill:url(#SVGID_00000111176339536631346870000015746904721707272869_);" d="M20.5,15.4c-1,0-1.8,0.3-2.6,0.8h0
	c-1.6,1.6-4.1,1.7-5.9,0.2H9.2v6.7h2.9c1.7-1.4,4.1-1.3,5.7,0.1v0c0.8,0.6,1.7,1,2.8,1c2.4,0,4.4-2,4.4-4.4
	C24.9,17.4,23,15.4,20.5,15.4z"/>
<circle class="st6" cx="9.2" cy="19.9" r="4.4"/>
<g>
	<path class="st6" d="M43.6,13.9V16h-5.3v3.3h4.5v2.1h-4.5v5.1h-2.5V13.9H43.6z"/>
	<path class="st6" d="M44.6,21.8c0-3.2,2.2-5,4.6-5c2.4,0,4.6,1.8,4.6,5c0,3.1-2.2,5-4.6,5C46.8,26.8,44.6,24.9,44.6,21.8z
		 M51.3,21.8c0-1.8-0.7-3-2-3c-1.3,0-2,1.1-2,3c0,1.8,0.7,3,2,3C50.5,24.7,51.3,23.6,51.3,21.8z"/>
	<path class="st6" d="M55.3,21.8c0-3.2,2.2-5,4.6-5c2.4,0,4.6,1.8,4.6,5c0,3.1-2.2,5-4.6,5C57.5,26.8,55.3,24.9,55.3,21.8z M62,21.8
		c0-1.8-0.7-3-2-3c-1.3,0-2,1.1-2,3c0,1.8,0.7,3,2,3C61.2,24.7,62,23.6,62,21.8z"/>
	<path class="st6" d="M66.1,21.8c0-3.1,1.9-5,4-5c1.1,0,1.7,0.4,2.4,1l-0.1-1.5v-3.4H75v13.6h-2l-0.2-1h-0.1
		C72,26.2,71,26.8,70,26.8C67.6,26.8,66.1,24.9,66.1,21.8z M72.4,23.7v-4.2c-0.6-0.5-1.2-0.7-1.8-0.7c-1.1,0-2,1-2,2.9
		c0,2,0.7,3,2,3C71.3,24.7,71.9,24.5,72.4,23.7z"/>
	<path class="st6" d="M77.2,23.9c-0.1-2.3,1.5-3.4,5.5-3.5c0.1-0.4,0-0.8-0.2-1.2c-0.2-0.3-0.7-0.4-1.4-0.4c-0.9,0-1.9,0.3-2.8,0.9
		l-0.8-1.8c1-0.6,2.5-1.1,4-1.1c2.4,0,3.7,1.4,3.7,4.2v5.6h-2.1l-0.2-1h-0.1c-0.8,0.7-1.8,1.1-2.9,1.1
		C78.3,26.7,77.2,25.6,77.2,23.9z M82.7,23.9v-1.9C82.1,22,81.5,22,81,22.1c-1.1,0.2-1.5,0.7-1.5,1.4c0,0.8,0.6,1.3,1.3,1.3
		C81.5,24.8,82.1,24.5,82.7,23.9z"/>
</g>
</svg>
