<svg width="36" height="36" viewBox="0 0 36 36" fill="none" xmlns="http://www.w3.org/2000/svg">
<path d="M30.0005 17.9909C30.0005 17.2192 29.929 16.4865 29.8063 15.7734H18.2598V20.1791H24.8709C24.5746 21.6248 23.7061 22.8459 22.4186 23.6763V26.6068H26.3628C28.6721 24.5652 30.0005 21.5565 30.0005 17.9909Z" fill="#4285F4"/>
<path d="M18.2601 29.4424C21.5708 29.4424 24.3399 28.3874 26.3631 26.5997L22.4189 23.6691C21.3153 24.3724 19.9155 24.8023 18.2601 24.8023C15.0618 24.8023 12.354 22.7411 11.3833 19.957H7.31641V22.9755C9.32939 26.8048 13.4678 29.4424 18.2601 29.4424Z" fill="#34A853"/>
<path d="M11.385 19.9613C11.1295 19.2579 10.9967 18.5058 10.9967 17.7243C10.9967 16.9428 11.1398 16.1906 11.385 15.4873V12.4688H7.31815C6.48025 14.0513 6 15.8292 6 17.7243C6 19.6194 6.48025 21.3973 7.31815 22.9798L11.385 19.9613Z" fill="#FBBC05"/>
<path d="M18.2601 10.6401C20.0687 10.6401 21.6832 11.236 22.9605 12.3985L26.4551 9.05758C24.3399 7.16247 21.5708 6 18.2601 6C13.4678 6 9.32939 8.63753 7.31641 12.4668L11.3833 15.4853C12.354 12.7013 15.0618 10.6401 18.2601 10.6401Z" fill="#EA4335"/>
</svg>
