<svg width="48" height="48" viewBox="0 0 48 48" fill="none" xmlns="http://www.w3.org/2000/svg">
<path d="M15.1875 14.5C15.1875 15.881 14.0312 17 12.6042 17C11.1771 17 10.0208 15.881 10.0208 14.5C10.0208 13.12 11.1771 12 12.6042 12C14.0312 12 15.1875 13.12 15.1875 14.5ZM15.2083 19H10V35H15.2083V19ZM23.5229 19H18.3479V35H23.524V26.601C23.524 21.931 29.8042 21.549 29.8042 26.601V35H35V24.869C35 16.989 25.7062 17.276 23.5229 21.155V19Z" fill="white"/>
<path d="M15.1875 14.5C15.1875 15.881 14.0312 17 12.6042 17C11.1771 17 10.0208 15.881 10.0208 14.5C10.0208 13.12 11.1771 12 12.6042 12C14.0312 12 15.1875 13.12 15.1875 14.5ZM15.2083 19H10V35H15.2083V19ZM23.5229 19H18.3479V35H23.524V26.601C23.524 21.931 29.8042 21.549 29.8042 26.601V35H35V24.869C35 16.989 25.7062 17.276 23.5229 21.155V19Z" fill="url(#paint0_linear)"/>
<defs>
<linearGradient id="paint0_linear" x1="22.5" y1="12" x2="22.5" y2="35" gradientUnits="userSpaceOnUse">
<stop stop-color="white"/>
<stop offset="1" stop-color="white" stop-opacity="0"/>
</linearGradient>
</defs>
</svg>
