<svg width="30" height="30" viewBox="0 0 30 30" fill="none" xmlns="http://www.w3.org/2000/svg">
<path d="M27.7724 15.0025C27.7724 7.9681 22.0542 2.26562 15.0005 2.26562C7.9467 2.26562 2.22852 7.9681 2.22852 15.0025C2.22852 21.3598 6.89902 26.6291 13.0048 27.5846V18.6842H9.76197V15.0025H13.0048V12.1964C13.0048 9.00421 14.9116 7.24096 17.829 7.24096C19.2263 7.24096 20.688 7.48972 20.688 7.48972V10.6242H19.0774C17.4908 10.6242 16.9961 11.606 16.9961 12.6133V15.0025H20.5383L19.972 18.6842H16.9961V27.5846C23.1019 26.6291 27.7724 21.3598 27.7724 15.0025" fill="#1877F2"/>
<path d="M19.9718 18.6815L20.538 14.9998H16.9958V12.6106C16.9958 11.6033 17.4906 10.6215 19.0772 10.6215H20.6877V7.48704C20.6877 7.48704 19.2261 7.23828 17.8287 7.23828C14.9113 7.23828 13.0046 9.00153 13.0046 12.1937V14.9998H9.76172V18.6815H13.0046V27.5819C13.6648 27.6851 14.332 27.7368 15.0002 27.7366C15.6791 27.7366 16.3456 27.6836 16.9958 27.5819V18.6815H19.9718Z" fill="white"/>
</svg>
